<mxfile host="app.diagrams.net" modified="2023-11-21T01:21:36.871Z" agent="Mozilla/5.0 (Windows NT 10.0; Win64; x64) AppleWebKit/537.36 (KHTML, like Gecko) Chrome/121.0.0.0 Safari/537.36 Edg/121.0.0.0" version="22.1.3" etag="7WsLbHo7HXCHuZkeYAm_" type="github">
  <diagram name="第 1 页" id="pFQgK-v07t4H-xWe-QvS">
    <mxGraphModel>
      <root>
        <mxCell id="0" />
        <mxCell id="1" parent="0" />
      </root>
    </mxGraphModel>
  </diagram>
</mxfile>
